<?xml version="1.0" encoding="utf-8"?>
<!-- Generator: Adobe Illustrator 21.0.2, SVG Export Plug-In . SVG Version: 6.00 Build 0)  -->
<svg version="1.1" id="Laag_1" xmlns="http://www.w3.org/2000/svg" xmlns:xlink="http://www.w3.org/1999/xlink" x="0px" y="0px"
	 viewBox="0 0 464.8 377.5" enable-background="new 0 0 464.8 377.5" xml:space="preserve">
<g>
	<polygon fill="#005DA4" points="118.8,174.9 118.8,180.8 129.2,180.8 129.2,186.4 118.8,186.4 118.8,197.4 112.3,197.4 
		112.3,169.1 130.1,169.1 130.1,174.9 	"/>
	<path fill="#005DA4" d="M141,181.2v-6.6h3.5c0.5,0,1,0,1.5,0.1c0.5,0.1,1,0.2,1.4,0.5c0.4,0.2,0.8,0.5,1,1c0.3,0.4,0.4,1,0.4,1.6
		c0,0.7-0.1,1.3-0.4,1.8c-0.3,0.5-0.7,0.8-1.1,1c-0.5,0.2-1,0.4-1.5,0.5c-0.6,0.1-1.1,0.1-1.6,0.1H141z M144.3,188.1
		c1.1-1.5,2.8-2.5,4.8-2.5c0.3,0,0.6,0,0.9,0.1l-0.2-0.4c1.8-0.6,3.1-1.5,4.1-2.8c1-1.3,1.5-2.9,1.5-4.9c0-1.6-0.3-3-0.9-4.1
		c-0.6-1.1-1.4-2-2.3-2.6c-1-0.7-2.1-1.1-3.3-1.4c-1.2-0.3-2.5-0.4-3.8-0.4h-10.3v28.4h6.4v-11.3h2.2L144.3,188.1z"/>
	<rect x="160.3" y="169.1" fill="#005DA4" width="6.6" height="28.4"/>
	<polygon fill="#005DA4" points="172.8,197.4 172.8,169.1 191,169.1 191,174.8 179.1,174.8 179.1,180.2 190.3,180.2 190.3,185.7 
		179.1,185.7 179.1,191.6 191.7,191.6 191.7,197.4 	"/>
	<path fill="#005DA4" d="M210.6,176.4c-0.6-0.7-1.3-1.3-2.2-1.8c-0.9-0.4-1.8-0.7-2.6-0.7c-0.4,0-0.9,0-1.3,0.1
		c-0.4,0.1-0.8,0.2-1.2,0.5c-0.4,0.2-0.7,0.5-0.9,0.9c-0.2,0.4-0.4,0.8-0.4,1.4c0,0.5,0.1,0.9,0.3,1.2c0.2,0.3,0.5,0.6,0.8,0.8
		c0.4,0.2,0.8,0.5,1.3,0.7c0.5,0.2,1.1,0.4,1.7,0.6c0.9,0.3,1.9,0.7,2.9,1.1c1,0.4,1.9,0.9,2.7,1.5c0.8,0.6,1.5,1.4,2,2.4
		c0.5,0.9,0.8,2.1,0.8,3.5c0,1.6-0.3,3-0.9,4.2c-0.6,1.2-1.3,2.2-2.3,2.9c-1,0.8-2.1,1.3-3.3,1.7c-1.2,0.4-2.5,0.6-3.8,0.6
		c-1.9,0-3.8-0.4-5.6-1.1c-1.8-0.7-3.3-1.7-4.5-3l4.3-4.6c0.7,0.9,1.5,1.6,2.6,2.1c1.1,0.6,2.2,0.9,3.2,0.9c0.5,0,1-0.1,1.4-0.2
		c0.5-0.1,0.9-0.3,1.2-0.5c0.3-0.2,0.6-0.6,0.8-1c0.2-0.4,0.3-0.9,0.3-1.4c0-0.5-0.1-1-0.4-1.4c-0.3-0.4-0.6-0.7-1.1-1
		c-0.5-0.3-1.1-0.6-1.8-0.8c-0.7-0.3-1.5-0.5-2.4-0.8c-0.9-0.3-1.7-0.6-2.5-1c-0.8-0.4-1.6-0.9-2.2-1.5c-0.6-0.6-1.2-1.4-1.6-2.3
		c-0.4-0.9-0.6-2-0.6-3.3c0-1.6,0.3-2.9,0.9-4.1c0.6-1.1,1.4-2,2.4-2.8c1-0.7,2.1-1.2,3.4-1.6c1.2-0.3,2.5-0.5,3.8-0.5
		c1.5,0,3.1,0.3,4.7,0.9c1.6,0.6,3,1.5,4.2,2.6L210.6,176.4z"/>
	<polygon fill="#005DA4" points="219.2,197.4 219.2,169.1 237.4,169.1 237.4,174.8 225.5,174.8 225.5,180.2 236.7,180.2 
		236.7,185.7 225.5,185.7 225.5,191.6 238.1,191.6 238.1,197.4 	"/>
	<path fill="#005DA4" d="M266.6,177.8c0-0.7-0.1-1.2-0.4-1.6c-0.3-0.4-0.6-0.8-1-1c-0.4-0.2-0.9-0.4-1.5-0.5
		c-0.5-0.1-1.1-0.1-1.7-0.1h-2.9v6.7h2.7c0.6,0,1.2-0.1,1.8-0.2c0.6-0.1,1.1-0.3,1.5-0.6c0.4-0.3,0.8-0.6,1-1.1
		C266.5,179.1,266.6,178.5,266.6,177.8 M273.1,177.8c0,1.7-0.3,3.1-0.9,4.2c-0.6,1.1-1.4,2.1-2.4,2.7c-1,0.7-2.1,1.2-3.4,1.5
		c-1.3,0.3-2.6,0.5-4,0.5h-3.2v10.7h-6.5v-28.4h9.9c1.5,0,2.9,0.2,4.1,0.5c1.3,0.3,2.4,0.8,3.4,1.5c1,0.7,1.7,1.6,2.2,2.7
		C272.9,174.8,273.1,176.2,273.1,177.8"/>
	<path fill="#005DA4" d="M298.6,183.1c0-1.2-0.2-2.4-0.6-3.5c-0.4-1.1-0.9-2-1.6-2.7c-0.7-0.8-1.5-1.4-2.4-1.8c-1-0.4-2-0.7-3.1-0.7
		c-1.1,0-2.2,0.2-3.1,0.7c-0.9,0.4-1.8,1-2.4,1.8c-0.7,0.8-1.2,1.7-1.6,2.7c-0.4,1.1-0.6,2.2-0.6,3.5c0,1.3,0.2,2.5,0.6,3.6
		c0.4,1.1,0.9,2,1.6,2.8c0.7,0.8,1.5,1.4,2.4,1.8c0.9,0.4,2,0.7,3.1,0.7c1.1,0,2.2-0.2,3.1-0.7c0.9-0.4,1.8-1,2.4-1.8
		c0.7-0.8,1.2-1.7,1.6-2.8C298.4,185.6,298.6,184.4,298.6,183.1 M305.6,183.1c0,2.2-0.4,4.3-1.1,6.2c-0.7,1.9-1.8,3.5-3.1,4.8
		c-1.3,1.3-2.9,2.3-4.7,3.1c-1.8,0.7-3.8,1.1-5.9,1.1s-4.1-0.4-5.8-1.1s-3.3-1.7-4.7-3.1c-1.3-1.3-2.3-2.9-3.1-4.8
		c-0.7-1.9-1.1-3.9-1.1-6.2c0-2.3,0.4-4.3,1.1-6.2c0.7-1.8,1.8-3.4,3.1-4.7c1.3-1.3,2.9-2.3,4.7-3c1.8-0.7,3.7-1,5.8-1
		s4.1,0.4,5.9,1c1.8,0.7,3.4,1.7,4.7,3c1.3,1.3,2.3,2.8,3.1,4.7C305.2,178.8,305.6,180.9,305.6,183.1"/>
	<path fill="#005DA4" d="M331.4,183.1c0-1.2-0.2-2.4-0.6-3.5c-0.4-1.1-0.9-2-1.6-2.7c-0.7-0.8-1.5-1.4-2.4-1.8c-1-0.4-2-0.7-3.1-0.7
		c-1.1,0-2.2,0.2-3.1,0.7c-0.9,0.4-1.8,1-2.4,1.8c-0.7,0.8-1.2,1.7-1.6,2.7c-0.4,1.1-0.6,2.2-0.6,3.5c0,1.3,0.2,2.5,0.6,3.6
		c0.4,1.1,0.9,2,1.6,2.8c0.7,0.8,1.5,1.4,2.4,1.8c0.9,0.4,2,0.7,3.1,0.7c1.1,0,2.2-0.2,3.1-0.7c0.9-0.4,1.8-1,2.4-1.8
		c0.7-0.8,1.2-1.7,1.6-2.8C331.2,185.6,331.4,184.4,331.4,183.1 M338.4,183.1c0,2.2-0.4,4.3-1.1,6.2c-0.7,1.9-1.8,3.5-3.1,4.8
		c-1.3,1.3-2.9,2.3-4.7,3.1s-3.8,1.1-5.9,1.1c-2.1,0-4.1-0.4-5.9-1.1c-1.8-0.7-3.3-1.7-4.6-3.1c-1.3-1.3-2.3-2.9-3.1-4.8
		c-0.7-1.9-1.1-3.9-1.1-6.2c0-2.3,0.4-4.3,1.1-6.2c0.7-1.8,1.8-3.4,3.1-4.7c1.3-1.3,2.9-2.3,4.6-3c1.8-0.7,3.7-1,5.9-1
		c2.1,0,4.1,0.4,5.9,1c1.8,0.7,3.4,1.7,4.7,3c1.3,1.3,2.3,2.8,3.1,4.7C338,178.8,338.4,180.9,338.4,183.1"/>
	<path fill="#005DA4" d="M357.2,177.8c0-0.7-0.1-1.2-0.4-1.6c-0.3-0.4-0.6-0.7-1-1c-0.4-0.2-0.9-0.4-1.4-0.5c-0.5-0.1-1-0.1-1.5-0.1
		h-3.5v6.6h3.1c0.5,0,1.1,0,1.6-0.1c0.6-0.1,1.1-0.3,1.5-0.5c0.5-0.2,0.8-0.6,1.1-1C357.1,179.1,357.2,178.5,357.2,177.8
		 M357.5,197.4l-5.9-11.3h-2.2v11.3h-6.4v-28.4h10.3c1.3,0,2.6,0.1,3.8,0.4c1.2,0.3,2.3,0.8,3.3,1.4c1,0.7,1.8,1.6,2.3,2.6
		c0.6,1.1,0.9,2.5,0.9,4.1c0,1.9-0.5,3.5-1.5,4.9c-1,1.3-2.4,2.2-4.1,2.8l7,12.2H357.5z"/>
	<polygon fill="#005DA4" points="379.8,174.9 379.8,197.4 373.3,197.4 373.3,174.9 365.6,174.9 365.6,169.1 387.4,169.1 
		387.4,174.9 	"/>
	<path fill="#005DA4" d="M149.7,184.8c-0.1,0-0.7,0.1-0.8,0.1c-0.1,0-0.2,0-0.3,0.1c-0.8,0.2-1.5,0.3-2.3,0.2
		c-0.7,0.1-1.3,0.3-2,0.4c-0.3,0.1-0.6,0.1-1,0.1c0,0,0,0-0.1,0.1c3.3,8.9,22.3,45.3,73.4,28.2C195.4,220.3,160.7,215.3,149.7,184.8
		"/>
	<path fill="#E7343F" d="M151.9,119.2c-19.4,13.8-17.9,37.2-17,44.2h6.3c-0.7-6-1.4-24.9,8.9-36.3c14.1-15.6,28.8-12.8,38.9-6.4
		C179.9,110.8,161.6,112.2,151.9,119.2"/>
	<path fill="#E7343F" d="M192.7,142.6c0,0,7.8,7.6,17.2,3.9c24.7-11.2,39.6,3.1,35.4,23.6c-0.1-5.5-3.4-17.4-11.9-21.4
		C220.7,142.9,204.2,158.3,192.7,142.6"/>
	<path fill="#005DA4" d="M61.8,182.9c0.4,0,0.7,0,1.1-0.1c0.4-0.1,0.7-0.2,1-0.3c0.3-0.2,0.5-0.4,0.7-0.6c0.2-0.3,0.3-0.6,0.3-1.1
		c0-0.4-0.1-0.7-0.3-1c-0.2-0.3-0.4-0.5-0.7-0.6c-0.3-0.1-0.6-0.3-0.9-0.3c-0.3-0.1-0.7-0.1-1-0.1h-2.3v4.1H61.8z M57.1,176.6h5
		c0.7,0,1.3,0.1,2,0.2c0.6,0.1,1.2,0.4,1.7,0.7c0.5,0.3,0.9,0.8,1.2,1.3c0.3,0.5,0.4,1.2,0.4,1.9c0,1-0.3,1.9-0.9,2.6
		c-0.6,0.7-1.4,1.1-2.4,1.3l3.9,6.4h-3.1l-3.3-6.1h-1.9v6.1h-2.6V176.6z"/>
	<path fill="#005DA4" d="M72.8,183.8c0,0.8,0.1,1.5,0.4,2.1c0.2,0.6,0.6,1.2,1,1.7c0.4,0.5,1,0.8,1.6,1.1c0.6,0.3,1.3,0.4,2,0.4
		c0.7,0,1.4-0.1,2-0.4c0.6-0.3,1.1-0.6,1.6-1.1c0.4-0.5,0.8-1,1-1.7c0.2-0.6,0.4-1.4,0.4-2.1c0-0.7-0.1-1.4-0.4-2.1
		c-0.2-0.6-0.6-1.2-1-1.7c-0.4-0.5-1-0.9-1.6-1.1c-0.6-0.3-1.3-0.4-2-0.4c-0.7,0-1.4,0.1-2,0.4c-0.6,0.3-1.1,0.6-1.6,1.1
		c-0.4,0.5-0.8,1-1,1.7C73,182.4,72.8,183.1,72.8,183.8 M70,183.8c0-1.2,0.2-2.2,0.6-3.1c0.4-0.9,0.9-1.7,1.6-2.4
		c0.7-0.7,1.5-1.2,2.5-1.5c0.9-0.4,2-0.5,3.1-0.5c1.1,0,2.2,0.2,3.1,0.5c1,0.4,1.8,0.9,2.5,1.5c0.7,0.7,1.2,1.4,1.6,2.4
		c0.4,0.9,0.6,2,0.6,3.1c0,1.1-0.2,2.2-0.6,3.1c-0.4,0.9-0.9,1.7-1.6,2.4c-0.7,0.7-1.5,1.2-2.5,1.6c-1,0.4-2,0.6-3.1,0.6
		c-1.1,0-2.1-0.2-3.1-0.6c-0.9-0.4-1.8-0.9-2.5-1.6c-0.7-0.7-1.2-1.5-1.6-2.4C70.2,186,70,184.9,70,183.8"/>
	<path fill="#005DA4" d="M99.3,180c-0.4-0.5-0.9-0.9-1.5-1.1c-0.6-0.2-1.2-0.4-1.8-0.4c-0.7,0-1.4,0.1-2,0.4
		c-0.6,0.3-1.1,0.6-1.6,1.1c-0.4,0.5-0.8,1-1,1.7c-0.2,0.6-0.4,1.3-0.4,2.1c0,0.8,0.1,1.5,0.3,2.2c0.2,0.7,0.6,1.2,1,1.7
		c0.4,0.5,0.9,0.8,1.5,1.1c0.6,0.3,1.3,0.4,2,0.4c0.8,0,1.5-0.2,2.1-0.5s1.1-0.7,1.4-1.2l2.1,1.5c-0.6,0.8-1.4,1.4-2.3,1.9
		c-0.9,0.4-2,0.7-3.2,0.7c-1.1,0-2.2-0.2-3.1-0.6c-0.9-0.4-1.8-0.9-2.4-1.6c-0.7-0.7-1.2-1.5-1.6-2.4c-0.4-0.9-0.6-2-0.6-3.1
		c0-1.2,0.2-2.2,0.6-3.1c0.4-0.9,1-1.7,1.7-2.4c0.7-0.7,1.5-1.2,2.5-1.5c1-0.4,2-0.5,3.1-0.5c0.5,0,0.9,0,1.4,0.1
		c0.5,0.1,1,0.2,1.5,0.4c0.5,0.2,0.9,0.4,1.3,0.7c0.4,0.3,0.8,0.6,1,1L99.3,180z"/>
</g>
</svg>
